<svg width="100" height="100" viewBox="0 0 100 100" fill="none" xmlns="http://www.w3.org/2000/svg">
<path d="M47.027 94.5977C70.014 94.5977 88.6487 75.9738 88.6487 53C88.6487 49.8055 88.2884 46.6952 87.6062 43.7073L92.0228 39.2932C93.3437 43.6297 94.0541 48.2319 94.0541 53C94.0541 78.9574 72.9993 100 47.027 100C21.0547 100 0 78.9574 0 53C0 27.0426 21.0547 6 47.027 6C60.581 6 72.7958 11.7308 81.3777 20.9002L77.5531 24.7226C69.9515 16.5297 59.0884 11.4023 47.027 11.4023C24.04 11.4023 5.40541 30.0262 5.40541 53C5.40541 75.9738 24.04 94.5977 47.027 94.5977Z" fill="black"/>
<path fill-rule="evenodd" clip-rule="evenodd" d="M98.4168 18.3869C100.528 20.4966 100.528 23.9172 98.4168 26.0269L49.7682 74.6476C47.6572 76.7573 44.2347 76.7573 42.1237 74.6476L19.9616 52.4982C17.8506 50.3884 17.8506 46.9679 19.9616 44.8582C22.0725 42.7484 25.495 42.7484 27.606 44.8582L45.9459 63.1876L90.7724 18.3869C92.8833 16.2772 96.3059 16.2772 98.4168 18.3869Z" fill="black"/>
<path d="M47.027 94.5977C70.014 94.5977 88.6487 75.9738 88.6487 53C88.6487 49.8055 88.2884 46.6952 87.6062 43.7073L92.0228 39.2932C93.3437 43.6297 94.0541 48.2319 94.0541 53C94.0541 78.9574 72.9993 100 47.027 100C21.0547 100 0 78.9574 0 53C0 27.0426 21.0547 6 47.027 6C60.581 6 72.7958 11.7308 81.3777 20.9002L77.5531 24.7226C69.9515 16.5297 59.0884 11.4023 47.027 11.4023C24.04 11.4023 5.40541 30.0262 5.40541 53C5.40541 75.9738 24.04 94.5977 47.027 94.5977Z" stroke="white"/>
<path d="M47.027 94.5977C70.014 94.5977 88.6487 75.9738 88.6487 53C88.6487 49.8055 88.2884 46.6952 87.6062 43.7073L92.0228 39.2932C93.3437 43.6297 94.0541 48.2319 94.0541 53C94.0541 78.9574 72.9993 100 47.027 100C21.0547 100 0 78.9574 0 53C0 27.0426 21.0547 6 47.027 6C60.581 6 72.7958 11.7308 81.3777 20.9002L77.5531 24.7226C69.9515 16.5297 59.0884 11.4023 47.027 11.4023C24.04 11.4023 5.40541 30.0262 5.40541 53C5.40541 75.9738 24.04 94.5977 47.027 94.5977Z" stroke="white"/>
<path fill-rule="evenodd" clip-rule="evenodd" d="M98.4168 18.3869C100.528 20.4966 100.528 23.9172 98.4168 26.0269L49.7682 74.6476C47.6572 76.7573 44.2347 76.7573 42.1237 74.6476L19.9616 52.4982C17.8506 50.3884 17.8506 46.9679 19.9616 44.8582C22.0725 42.7484 25.495 42.7484 27.606 44.8582L45.9459 63.1876L90.7724 18.3869C92.8833 16.2772 96.3059 16.2772 98.4168 18.3869Z" stroke="white"/>
<path fill-rule="evenodd" clip-rule="evenodd" d="M98.4168 18.3869C100.528 20.4966 100.528 23.9172 98.4168 26.0269L49.7682 74.6476C47.6572 76.7573 44.2347 76.7573 42.1237 74.6476L19.9616 52.4982C17.8506 50.3884 17.8506 46.9679 19.9616 44.8582C22.0725 42.7484 25.495 42.7484 27.606 44.8582L45.9459 63.1876L90.7724 18.3869C92.8833 16.2772 96.3059 16.2772 98.4168 18.3869Z" stroke="white"/>
</svg>
