<svg width="100" height="100" viewBox="0 0 100 100" fill="none" xmlns="http://www.w3.org/2000/svg">
<path fill-rule="evenodd" clip-rule="evenodd" d="M2.64534 20.0247C3.60295 19.3778 4.75736 19 6 19H94C94.959 19 95.8656 19.225 96.6696 19.6251C96.6903 19.6354 96.7109 19.6459 96.7315 19.6564C96.948 19.7673 97.1569 19.891 97.3571 20.0264C97.3663 20.0326 97.3754 20.0388 97.3845 20.045C98.573 20.8584 99.4539 22.0882 99.8171 23.5242C99.9366 23.9963 100 24.4908 100 25V76C100 79.3137 97.3137 82 94 82H6C2.68629 82 0 79.3137 0 76V25C0 24.7642 0.0136036 24.5316 0.0400644 24.3029C0.0717081 24.0294 0.12174 23.7615 0.188896 23.5005C0.232599 23.3306 0.283554 23.1637 0.341411 23C0.773293 21.7781 1.58975 20.7379 2.64534 20.0247ZM95 26.9121L53.9772 55.7633C51.2163 57.705 47.5337 57.705 44.7728 55.7633L5 27.7912V76C5 76.5523 5.44772 77 6 77H94C94.5523 77 95 76.5523 95 76V26.9121ZM8.30094 24L47.6492 51.6735C48.6845 52.4016 50.0655 52.4016 51.1008 51.6735L90.4491 24H8.30094Z" fill="black"/>
</svg>
