<svg width="100" height="100" viewBox="0 0 100 100" fill="none" xmlns="http://www.w3.org/2000/svg">
<path fill-rule="evenodd" clip-rule="evenodd" d="M1.52881 50.5L2.32031 51.2335L2.32609 51.2388L2.33979 51.2514L2.3908 51.298C2.43524 51.3383 2.50044 51.3971 2.5859 51.4732C2.75681 51.6252 3.00877 51.846 3.33765 52.1257C3.99534 52.685 4.961 53.4798 6.20157 54.4298C13.4466 59.9783 30.297 71 50 71C69.703 71 86.5535 59.9783 93.7985 54.4298C95.039 53.4798 96.0047 52.685 96.6624 52.1257C96.9913 51.846 97.2432 51.6252 97.4141 51.4732C97.4996 51.3971 97.5648 51.3383 97.6092 51.298L97.6603 51.2514L97.674 51.2388L97.679 51.2341L98.4712 50.5L97.6796 49.7664L97.674 49.7612L97.6603 49.7486L97.6092 49.702C97.5648 49.6617 97.4996 49.6029 97.4141 49.5268C97.2432 49.3748 96.9913 49.154 96.6624 48.8743C96.0047 48.315 95.039 47.5202 93.7985 46.5702C86.5535 41.0217 69.703 30 50 30C30.297 30 13.4466 41.0217 6.20157 46.5702C4.961 47.5202 3.99534 48.315 3.33765 48.8743C3.00877 49.154 2.75681 49.3748 2.5859 49.5268C2.50044 49.6029 2.43524 49.6617 2.3908 49.702L2.33979 49.7486L2.32609 49.7612L2.32031 49.7665L1.52881 50.5ZM97.679 51.2341L97 50.5C97.6797 51.2335 97.6791 51.2341 97.679 51.2341ZM80.5075 46.0194C83.2195 47.5738 85.5796 49.1283 87.5098 50.5C85.5796 51.8717 83.2195 53.4262 80.5075 54.9806C75.5969 57.7952 69.6593 60.537 63.1196 62.2444C66.0993 58.9212 67.92 54.4302 67.92 49.5C67.92 45.7291 66.855 42.2159 65.0217 39.2856C70.8125 41.0006 76.0786 43.4809 80.5075 46.0194ZM19.4926 46.0194C24.2135 43.3135 29.885 40.6742 36.1288 38.9571C34.1667 41.9517 33.02 45.5871 33.02 49.5C33.02 54.5822 34.9548 59.198 38.0997 62.5489C31.0792 60.8757 24.7074 57.9696 19.4926 54.9806C16.7806 53.4262 14.4204 51.8717 12.4903 50.5C14.4204 49.1283 16.7806 47.5738 19.4926 46.0194ZM18.9953 55.8482C16.1202 54.2003 13.6362 52.5525 11.6335 51.1171C11.3398 50.9066 11.0565 50.7007 10.7838 50.5C11.0565 50.2993 11.3398 50.0934 11.6335 49.8829C12.3845 49.3446 13.2032 48.7765 14.0848 48.1897C12.8585 49.006 11.7539 49.7861 10.7838 50.5C12.9162 52.0693 15.6986 53.9587 18.9953 55.8482C18.9953 55.8482 18.9953 55.8482 18.9953 55.8482ZM18.9953 45.1518C18.9953 45.1518 18.9953 45.1518 18.9953 45.1518ZM61.5334 49.5C61.5334 56.0946 56.5227 61.3333 50.47 61.3333C44.4173 61.3333 39.4067 56.0946 39.4067 49.5C39.4067 42.9054 44.4173 37.6667 50.47 37.6667C56.5227 37.6667 61.5334 42.9054 61.5334 49.5Z" fill="black"/>
</svg>
