<svg width="100" height="100" viewBox="0 0 100 100" fill="none" xmlns="http://www.w3.org/2000/svg">
<path fill-rule="evenodd" clip-rule="evenodd" d="M8.41112 21.8761C18.4555 11.543 34.93 11.3526 45.2079 21.4509L50.078 26.2358L54.4814 21.7613C64.5888 11.4906 81.0642 11.4021 91.2801 21.5638C101.496 31.7254 101.584 48.2892 91.4766 58.5599L50.6956 100L8.83408 58.8704C-1.44388 48.7721 -1.63324 32.2092 8.41112 21.8761ZM37.7847 29.0875C31.7018 23.111 21.9516 23.2237 16.007 29.3392C10.0624 35.4547 10.1744 45.2572 16.2573 51.2337L50.5696 84.9461L83.9266 51.05C89.9085 44.9714 89.8564 35.1684 83.8103 29.1543C77.7641 23.1403 68.0134 23.1926 62.0314 29.2712L50.2041 41.2897L37.7847 29.0875Z" fill="black"/>
</svg>
