<svg width="100" height="100" viewBox="0 0 100 100" fill="none" xmlns="http://www.w3.org/2000/svg">
<g clip-path="url(#clip0_6_29)">
<path fill-rule="evenodd" clip-rule="evenodd" d="M94.2529 50C94.2529 74.4402 74.4402 94.2529 50 94.2529C25.5598 94.2529 5.74713 74.4402 5.74713 50C5.74713 25.5598 25.5598 5.74713 50 5.74713C74.4402 5.74713 94.2529 25.5598 94.2529 50ZM100 50C100 77.6142 77.6142 100 50 100C22.3858 100 0 77.6142 0 50C0 22.3858 22.3858 0 50 0C77.6142 0 100 22.3858 100 50ZM41.6405 61.5987V62.709H54.0165V61.5987C54.0382 59.4653 54.3103 57.6694 54.8328 56.2108C55.377 54.7523 56.1934 53.4679 57.2819 52.3576C58.3921 51.2474 59.8071 50.1807 61.5269 49.1575C63.5732 47.9384 65.3474 46.5778 66.8495 45.0758C68.3516 43.5519 69.5163 41.8103 70.3435 39.8511C71.1925 37.8701 71.617 35.6061 71.617 33.059C71.617 29.2494 70.6701 25.9949 68.7761 23.2954C66.8822 20.596 64.2698 18.5388 60.9391 17.1238C57.6084 15.687 53.777 14.9686 49.4449 14.9686C45.5046 14.9686 41.9018 15.6761 38.6364 17.0912C35.3709 18.4844 32.7477 20.6069 30.7667 23.4587C28.7857 26.2887 27.7408 29.8807 27.6319 34.2346H40.9548C41.0201 32.4495 41.4555 30.9583 42.261 29.761C43.0664 28.5419 44.1005 27.6276 45.3631 27.018C46.6257 26.3867 47.9646 26.071 49.3796 26.071C50.8381 26.071 52.166 26.3758 53.3634 26.9854C54.5825 27.5949 55.5512 28.4657 56.2696 29.5977C56.988 30.7297 57.3472 32.0468 57.3472 33.5488C57.3472 34.9639 57.0315 36.2483 56.4002 37.402C55.7689 38.534 54.9199 39.5681 53.8532 40.5042C52.7865 41.4403 51.5783 42.3437 50.2286 43.2145C48.4217 44.3465 46.8761 45.6091 45.5917 47.0023C44.3073 48.3956 43.3277 50.2242 42.6528 52.4882C41.9997 54.7523 41.6623 57.7891 41.6405 61.5987ZM42.5222 81.3218C44.0678 82.8457 45.9291 83.6076 48.1061 83.6076C49.4993 83.6076 50.7837 83.2593 51.9592 82.5627C53.1348 81.8443 54.0818 80.8973 54.8001 79.7218C55.5403 78.5245 55.9213 77.2074 55.943 75.7706C55.9213 73.6372 55.1267 71.8086 53.5593 70.2847C51.9919 68.7609 50.1741 67.9989 48.1061 67.9989C45.9291 67.9989 44.0678 68.7609 42.5222 70.2847C40.9983 71.8086 40.2473 73.6372 40.2691 75.7706C40.2473 77.9258 40.9983 79.7762 42.5222 81.3218Z" fill="black"/>
</g>
<defs>
<clipPath id="clip0_6_29">
<rect width="100" height="100" rx="2" fill="white"/>
</clipPath>
</defs>
</svg>
