<svg width="100" height="100" viewBox="0 0 100 100" fill="none" xmlns="http://www.w3.org/2000/svg">
<g clip-path="url(#clip0_6_28)">
<path fill-rule="evenodd" clip-rule="evenodd" d="M50 100C77.6142 100 100 77.6142 100 50C100 22.3858 77.6142 0 50 0C22.3858 0 0 22.3858 0 50C0 77.6142 22.3858 100 50 100ZM40.4911 63.8584V61.5922C40.5132 57.7333 40.8537 54.5779 41.5484 52.1697L41.5513 52.1599C42.2641 49.7685 43.3179 47.773 44.7466 46.2233C46.1067 44.7479 47.7317 43.4231 49.6117 42.2446C50.9175 41.4017 52.0775 40.5332 53.095 39.6402C54.0711 38.7837 54.8327 37.8517 55.3941 36.8463C55.9244 35.8754 56.1978 34.7844 56.1978 33.5488C56.1978 32.2378 55.8869 31.1398 55.2991 30.2136C54.6945 29.2609 53.8849 28.5312 52.8493 28.0134L52.8419 28.0097C51.8196 27.4893 50.6727 27.2205 49.3796 27.2205C48.1426 27.2205 46.9798 27.4948 45.8772 28.0461L45.8629 28.0532C44.7948 28.5689 43.9163 29.3407 43.22 30.3946L43.2147 30.4026C42.5544 31.3842 42.1628 32.6548 42.1035 34.2766L42.063 35.384H26.4534L26.4829 34.2059C26.5959 29.6857 27.684 25.8591 29.8239 22.8012C31.9304 19.7695 34.7248 17.511 38.1823 16.0352C41.6059 14.5522 45.3655 13.8192 49.4449 13.8192C53.9025 13.8192 57.8926 14.5584 61.3915 16.0671C64.8987 17.5577 67.6884 19.7438 69.7171 22.6353C71.7669 25.5569 72.7665 29.051 72.7665 33.059C72.7665 35.7326 72.3209 38.1539 71.4013 40.3008C70.5172 42.3939 69.2711 44.2565 67.6681 45.8827L67.6623 45.8885C66.0853 47.4655 64.2336 48.883 62.1152 50.145C60.4583 51.1307 59.1254 52.1405 58.0986 53.1664C57.1267 54.1589 56.3997 55.3023 55.9124 56.6055C55.448 57.9052 55.1872 59.5611 55.1659 61.6047V63.8584H40.4911ZM41.7094 82.1346L41.7037 82.1288C39.9694 80.3698 39.0976 78.2294 39.1196 75.7706C39.0976 73.3298 39.9724 71.209 41.7094 69.472L41.7152 69.4662C43.4766 67.7296 45.6281 66.8495 48.1061 66.8495C50.4918 66.8495 52.5921 67.7413 54.3605 69.4606C56.1416 71.1921 57.0674 73.3108 57.0924 75.7589L57.0926 75.7735L57.0924 75.788C57.0675 77.4268 56.6301 78.9465 55.7795 80.3236C54.9662 81.6536 53.889 82.7305 52.5586 83.5435L52.5453 83.5516C51.1887 84.3555 49.7013 84.757 48.1061 84.757C45.6281 84.757 43.4766 83.8769 41.7152 82.1403L41.7094 82.1346Z" fill="black"/>
</g>
<defs>
<clipPath id="clip0_6_28">
<rect width="100" height="100" rx="2" fill="white"/>
</clipPath>
</defs>
</svg>
