<svg width="100" height="100" viewBox="0 0 100 100" fill="none" xmlns="http://www.w3.org/2000/svg">
<path fill-rule="evenodd" clip-rule="evenodd" d="M98 50.5C98 76.7335 76.7335 98 50.5 98C24.2665 98 3 76.7335 3 50.5C3 24.2665 24.2665 3 50.5 3C76.7335 3 98 24.2665 98 50.5ZM38 20.4549C26.2754 25.1786 18 36.6613 18 50.0769C18 67.7075 32.2924 82 49.9231 82C67.5537 82 81.8462 67.7075 81.8462 50.0769C81.8462 36.3698 73.2072 24.6804 61.0769 20.1566V31.1993C67.5235 35.0165 71.8462 42.0419 71.8462 50.0769C71.8462 62.1847 62.0309 72 49.9231 72C37.8153 72 28 62.1847 28 50.0769C28 42.3659 31.9811 35.5847 38 31.6765V20.4549ZM45.6923 12.6V42.9385C46.5221 43.2617 47.8721 43.5385 49.5384 43.5385C51.2047 43.5385 52.5548 43.2617 53.3846 42.9385L53.3846 28.4256L53.3846 18.3393L53.3846 12.6C52.5548 12.2768 51.2047 12 49.5384 12C47.8721 12 46.5221 12.2768 45.6923 12.6Z" fill="black"/>
</svg>
