<svg width="100" height="100" viewBox="0 0 100 100" fill="none" xmlns="http://www.w3.org/2000/svg">
<path fill-rule="evenodd" clip-rule="evenodd" d="M62.0971 75.4981C57.8693 77.1151 53.2866 78 48.5 78C27.237 78 10 60.5391 10 39C10 17.4609 27.237 0 48.5 0C69.763 0 87 17.4609 87 39C87 50.3237 82.2359 60.5202 74.6273 67.6449C75.0578 68.4876 75.0536 69.4626 74.6695 70.2822L88.7559 90.5916C90.5395 93.1631 89.9007 96.6936 87.3292 98.4772C84.7577 100.261 81.2272 99.622 79.4437 97.0505L65.4349 76.853C64.2396 77.167 62.9246 76.7166 62.1908 75.6359L62.0971 75.4981ZM76.7333 39C76.7333 54.7953 64.0928 67.6 48.5 67.6C32.9072 67.6 20.2667 54.7953 20.2667 39C20.2667 23.2047 32.9072 10.4 48.5 10.4C64.0928 10.4 76.7333 23.2047 76.7333 39Z" fill="black"/>
</svg>
