<svg xmlns="http://www.w3.org/2000/svg" width="100" height="100" fill="none"><path fill="#000" fill-rule="evenodd" d="M8.411 21.876c10.045-10.333 26.519-10.523 36.797-.425l4.87 4.785 4.403-4.475c10.108-10.27 26.583-10.359 36.8-.197 10.215 10.161 10.303 26.725.196 36.996L50.696 100 8.834 58.87C-1.444 48.772-1.633 32.21 8.411 21.876m29.374 7.211c-6.083-5.976-15.833-5.863-21.778.252-5.945 6.116-5.833 15.918.25 21.895L50.57 84.946 83.927 51.05c5.981-6.079 5.93-15.882-.117-21.896-6.046-6.014-15.797-5.961-21.779.117L50.204 41.29z" clip-rule="evenodd"/></svg>