<svg xmlns="http://www.w3.org/2000/svg" width="100" height="100" fill="none"><g clip-path="url(#a)"><path fill="#000" fill-rule="evenodd" d="M50 100c27.614 0 50-22.386 50-50S77.614 0 50 0 0 22.386 0 50s22.386 50 50 50m-9.509-36.142v-2.266c.022-3.859.363-7.014 1.057-9.422l.003-.01c.713-2.391 1.767-4.387 3.196-5.937 1.36-1.475 2.985-2.8 4.865-3.978a29.64 29.64 0 0 0 3.483-2.605c.976-.856 1.738-1.788 2.3-2.794.53-.97.803-2.062.803-3.297 0-1.311-.311-2.41-.899-3.335a6.024 6.024 0 0 0-2.45-2.2l-.007-.004c-1.022-.52-2.17-.79-3.462-.79-1.237 0-2.4.275-3.503.826l-.014.007c-1.068.516-1.947 1.288-2.643 2.342l-.005.008c-.66.981-1.052 2.252-1.112 3.874l-.04 1.107h-15.61l.03-1.178c.113-4.52 1.201-8.347 3.34-11.405 2.107-3.031 4.902-5.29 8.36-6.766 3.423-1.483 7.182-2.216 11.262-2.216 4.458 0 8.448.74 11.947 2.248 3.507 1.49 6.296 3.677 8.325 6.568 2.05 2.922 3.05 6.416 3.05 10.424 0 2.674-.446 5.095-1.366 7.242a17.698 17.698 0 0 1-3.733 5.582l-.006.005c-1.577 1.578-3.428 2.995-5.547 4.257-1.657.986-2.99 1.995-4.016 3.021a9.726 9.726 0 0 0-2.187 3.44c-.464 1.3-.725 2.955-.746 4.999v2.253zm1.218 18.277-.005-.006c-1.735-1.76-2.606-3.9-2.584-6.358-.022-2.441.852-4.562 2.59-6.299l.005-.006c1.762-1.736 3.913-2.616 6.391-2.616 2.386 0 4.486.891 6.255 2.61 1.78 1.732 2.706 3.85 2.731 6.299V75.788a8.745 8.745 0 0 1-1.312 4.536 9.593 9.593 0 0 1-3.221 3.22l-.014.008a8.57 8.57 0 0 1-4.439 1.205c-2.478 0-4.63-.88-6.39-2.617z" clip-rule="evenodd"/></g><defs><clipPath id="a"><rect width="100" height="100" fill="#fff" rx="2"/></clipPath></defs></svg>