<svg xmlns="http://www.w3.org/2000/svg" width="100" height="100" fill="none"><g clip-path="url(#a)"><path fill="#000" fill-rule="evenodd" d="M94.253 50c0 24.44-19.813 44.253-44.253 44.253S5.747 74.44 5.747 50 25.56 5.747 50 5.747 94.253 25.56 94.253 50M100 50c0 27.614-22.386 50-50 50S0 77.614 0 50 22.386 0 50 0s50 22.386 50 50M41.64 61.599v1.11h12.377v-1.11c.021-2.134.293-3.93.816-5.388a10.875 10.875 0 0 1 2.449-3.853c1.11-1.11 2.525-2.177 4.245-3.2 2.046-1.22 3.82-2.58 5.323-4.082a16.55 16.55 0 0 0 3.494-5.225c.849-1.98 1.273-4.245 1.273-6.792 0-3.81-.947-7.064-2.84-9.764-1.895-2.699-4.507-4.756-7.838-6.171-3.33-1.437-7.162-2.155-11.494-2.155-3.94 0-7.543.707-10.809 2.122-3.265 1.393-5.888 3.516-7.87 6.368-1.98 2.83-3.025 6.422-3.134 10.776h13.323c.065-1.785.5-3.277 1.306-4.474.805-1.22 1.84-2.133 3.102-2.743a8.862 8.862 0 0 1 4.017-.947c1.458 0 2.786.305 3.983.914a7.173 7.173 0 0 1 2.907 2.613c.718 1.132 1.077 2.449 1.077 3.95 0 1.416-.316 2.7-.947 3.854-.631 1.132-1.48 2.166-2.547 3.102a30.8 30.8 0 0 1-3.624 2.71c-1.807 1.133-3.353 2.395-4.637 3.788-1.285 1.394-2.264 3.222-2.94 5.486-.652 2.264-.99 5.301-1.011 9.11m.882 19.723c1.546 1.524 3.407 2.286 5.584 2.286a7.421 7.421 0 0 0 3.853-1.045 8.443 8.443 0 0 0 2.841-2.841 7.594 7.594 0 0 0 1.143-3.951c-.022-2.134-.816-3.962-2.384-5.486-1.567-1.524-3.385-2.286-5.453-2.286-2.177 0-4.038.762-5.584 2.286-1.524 1.524-2.275 3.352-2.253 5.486-.022 2.155.73 4.005 2.253 5.55" clip-rule="evenodd"/></g><defs><clipPath id="a"><rect width="100" height="100" fill="#fff" rx="2"/></clipPath></defs></svg>