<svg xmlns="http://www.w3.org/2000/svg" width="100" height="100" fill="none"><path fill="#000" fill-rule="evenodd" d="M98 50.5C98 76.734 76.734 98 50.5 98 24.267 98 3 76.734 3 50.5 3 24.267 24.267 3 50.5 3 76.734 3 98 24.267 98 50.5M38 20.455C26.275 25.179 18 36.66 18 50.077 18 67.707 32.292 82 49.923 82c17.63 0 31.923-14.293 31.923-31.923 0-13.707-8.639-25.397-20.77-29.92v11.042c6.447 3.817 10.77 10.843 10.77 18.878C71.846 62.185 62.031 72 49.923 72 37.815 72 28 62.185 28 50.077c0-7.711 3.981-14.492 10-18.4zm7.692-7.855v30.338c.83.324 2.18.6 3.846.6 1.667 0 3.017-.276 3.847-.6V12.6c-.83-.323-2.18-.6-3.847-.6-1.666 0-3.016.277-3.846.6" clip-rule="evenodd"/></svg>