<svg xmlns="http://www.w3.org/2000/svg" xmlns:xlink="http://www.w3.org/1999/xlink"><symbol fill="currentColor" viewBox="0 0 100 100" id="chevron-down"><path fill-rule="evenodd" clip-rule="evenodd" d="M2.464 47.465a5 5 0 0 0 0 7.07l43.841 43.841a5 5 0 0 0 7.071 0l43.84-43.84a5 5 0 1 0-7.07-7.072L49.84 87.77 9.536 47.465a5 5 0 0 0-7.072 0Z"/></symbol><symbol fill="currentColor" viewBox="0 0 100 100" id="chevron-left"><path fill-rule="evenodd" clip-rule="evenodd" d="M55.376 3.464a5 5 0 0 0-7.07 0L4.463 47.305a5 5 0 0 0 0 7.071l43.841 43.84a5 5 0 0 0 7.071-7.07L15.071 50.84l40.305-40.306a5 5 0 0 0 0-7.07Z"/></symbol><symbol fill="currentColor" viewBox="0 0 100 100" id="chevron-right"><path fill-rule="evenodd" clip-rule="evenodd" d="M40.305 3.464a5 5 0 0 1 7.071 0l43.84 43.841a5 5 0 0 1 0 7.071l-43.84 43.84a5 5 0 0 1-7.07-7.07L80.61 50.84 40.305 10.535a5 5 0 0 1 0-7.07Z"/></symbol><symbol fill="currentColor" viewBox="0 0 100 100" id="chevron-up"><path fill-rule="evenodd" clip-rule="evenodd" d="M2.464 52.376a5 5 0 0 1 0-7.07L46.305 1.463a5 5 0 0 1 7.071 0l43.84 43.841a5 5 0 0 1-7.07 7.071L49.84 12.071 9.536 52.376a5 5 0 0 1-7.072 0Z"/></symbol><symbol fill="currentColor" viewBox="0 0 100 100" id="heart"><path fill-rule="evenodd" clip-rule="evenodd" d="M7.548 25.943c8.875-9.109 23.43-9.277 32.512-.375l9.597 9.407 9.009-9.133c8.93-9.054 23.487-9.132 32.513-.174 9.026 8.957 9.104 23.559.174 32.613L50.203 100 7.921 58.554c-9.081-8.902-9.249-23.502-.374-32.611Z"/></symbol><symbol fill="currentColor" viewBox="0 0 100 100" id="heart-empty"><path fill-rule="evenodd" clip-rule="evenodd" d="M8.411 21.876c10.045-10.333 26.519-10.523 36.797-.425l4.87 4.785 4.403-4.475c10.108-10.27 26.583-10.359 36.8-.197 10.215 10.161 10.303 26.725.196 36.996L50.696 100 8.834 58.87C-1.444 48.772-1.633 32.21 8.411 21.876Zm29.374 7.211c-6.083-5.976-15.833-5.863-21.778.252-5.945 6.116-5.833 15.918.25 21.895L50.57 84.946 83.927 51.05c5.981-6.079 5.93-15.882-.117-21.896-6.046-6.014-15.797-5.961-21.779.117L50.204 41.29l-12.42-12.203Z"/></symbol><symbol fill="currentColor" viewBox="0 0 100 100" id="heart-half-full"><g clip-path="url(#fa)"><path fill-rule="evenodd" clip-rule="evenodd" d="M45.208 21.45c-10.278-10.097-26.752-9.907-36.797.426-10.044 10.333-9.855 26.896.423 36.994L50.696 100l40.78-41.44c10.108-10.27 10.02-26.835-.196-36.996-10.216-10.162-26.691-10.073-36.799.197l-4.403 4.475-4.87-4.785Zm5.6 63.253L83.928 51.05c5.981-6.079 5.93-15.882-.117-21.896-6.046-6.014-15.797-5.961-21.779.117L50.443 41.047l.366 43.656Z"/></g><defs><clipPath id="fa"><rect width="100" height="100" rx="2"/></clipPath></defs></symbol><symbol fill="currentColor" viewBox="0 0 100 100" id="help-empty"><g clip-path="url(#ha)"><path fill-rule="evenodd" clip-rule="evenodd" d="M94.253 50c0 24.44-19.813 44.253-44.253 44.253S5.747 74.44 5.747 50 25.56 5.747 50 5.747 94.253 25.56 94.253 50ZM100 50c0 27.614-22.386 50-50 50S0 77.614 0 50 22.386 0 50 0s50 22.386 50 50ZM41.64 61.599v1.11h12.377v-1.11c.021-2.134.293-3.93.816-5.388a10.875 10.875 0 0 1 2.449-3.853c1.11-1.11 2.525-2.177 4.245-3.2 2.046-1.22 3.82-2.58 5.323-4.082a16.55 16.55 0 0 0 3.494-5.225c.849-1.98 1.273-4.245 1.273-6.792 0-3.81-.947-7.064-2.84-9.764-1.895-2.699-4.507-4.756-7.838-6.171-3.33-1.437-7.162-2.155-11.494-2.155-3.94 0-7.543.707-10.809 2.122-3.265 1.393-5.888 3.516-7.87 6.368-1.98 2.83-3.025 6.422-3.134 10.776h13.323c.065-1.785.5-3.277 1.306-4.474.805-1.22 1.84-2.133 3.102-2.743a8.862 8.862 0 0 1 4.017-.947c1.458 0 2.786.305 3.983.914a7.173 7.173 0 0 1 2.907 2.613c.718 1.132 1.077 2.449 1.077 3.95 0 1.416-.316 2.7-.947 3.854-.631 1.132-1.48 2.166-2.547 3.102a30.8 30.8 0 0 1-3.624 2.71c-1.807 1.133-3.353 2.395-4.637 3.788-1.285 1.394-2.264 3.222-2.94 5.486-.652 2.264-.99 5.301-1.011 9.11Zm.882 19.723c1.546 1.524 3.407 2.286 5.584 2.286a7.421 7.421 0 0 0 3.853-1.045 8.443 8.443 0 0 0 2.841-2.841 7.594 7.594 0 0 0 1.143-3.951c-.022-2.134-.816-3.962-2.384-5.486-1.567-1.524-3.385-2.286-5.453-2.286-2.177 0-4.038.762-5.584 2.286-1.524 1.524-2.275 3.352-2.253 5.486-.022 2.155.73 4.005 2.253 5.55Z"/></g><defs><clipPath id="ha"><rect width="100" height="100" rx="2"/></clipPath></defs></symbol><symbol fill="currentColor" viewBox="0 0 100 100" id="help-full"><g clip-path="url(#ia)"><path fill-rule="evenodd" clip-rule="evenodd" d="M50 100c27.614 0 50-22.386 50-50S77.614 0 50 0 0 22.386 0 50s22.386 50 50 50Zm-9.509-36.142v-2.266c.022-3.859.363-7.014 1.057-9.422l.003-.01c.713-2.391 1.767-4.387 3.196-5.937 1.36-1.475 2.985-2.8 4.865-3.978a29.64 29.64 0 0 0 3.483-2.605c.976-.856 1.738-1.788 2.3-2.794.53-.97.803-2.062.803-3.297 0-1.311-.311-2.41-.899-3.335a6.024 6.024 0 0 0-2.45-2.2l-.007-.004c-1.022-.52-2.17-.79-3.462-.79-1.237 0-2.4.275-3.503.826l-.014.007c-1.068.516-1.947 1.288-2.643 2.342l-.005.008c-.66.981-1.052 2.252-1.112 3.874l-.04 1.107h-15.61l.03-1.178c.113-4.52 1.201-8.347 3.34-11.405 2.107-3.031 4.902-5.29 8.36-6.766 3.423-1.483 7.182-2.216 11.262-2.216 4.458 0 8.448.74 11.947 2.248 3.507 1.49 6.296 3.677 8.325 6.568 2.05 2.922 3.05 6.416 3.05 10.424 0 2.674-.446 5.095-1.366 7.242a17.698 17.698 0 0 1-3.733 5.582l-.006.005c-1.577 1.578-3.428 2.995-5.547 4.257-1.657.986-2.99 1.995-4.016 3.021a9.726 9.726 0 0 0-2.187 3.44c-.464 1.3-.725 2.955-.746 4.999v2.253H40.49Zm1.218 18.277-.005-.006c-1.735-1.76-2.606-3.9-2.584-6.358-.022-2.441.852-4.562 2.59-6.299l.005-.006c1.762-1.736 3.913-2.616 6.391-2.616 2.386 0 4.486.891 6.255 2.61 1.78 1.732 2.706 3.85 2.731 6.299V75.788a8.745 8.745 0 0 1-1.313 4.536 9.593 9.593 0 0 1-3.22 3.22l-.014.008a8.57 8.57 0 0 1-4.439 1.205c-2.478 0-4.63-.88-6.39-2.617l-.007-.005Z"/></g><defs><clipPath id="ia"><rect width="100" height="100" rx="2"/></clipPath></defs></symbol><symbol fill="currentColor" viewBox="0 0 100 100" id="power-on"><path fill-rule="evenodd" clip-rule="evenodd" d="M98 50.5C98 76.734 76.734 98 50.5 98 24.267 98 3 76.734 3 50.5 3 24.267 24.267 3 50.5 3 76.734 3 98 24.267 98 50.5ZM38 20.455C26.275 25.179 18 36.66 18 50.077 18 67.707 32.292 82 49.923 82c17.63 0 31.923-14.293 31.923-31.923 0-13.707-8.639-25.397-20.77-29.92v11.042c6.447 3.817 10.77 10.843 10.77 18.878C71.846 62.185 62.031 72 49.923 72 37.815 72 28 62.185 28 50.077c0-7.711 3.981-14.492 10-18.4V20.455Zm7.692-7.855v30.338c.83.324 2.18.6 3.846.6 1.667 0 3.017-.276 3.847-.6V12.6c-.83-.323-2.18-.6-3.847-.6-1.666 0-3.016.277-3.846.6Z"/></symbol><symbol fill="currentColor" viewBox="0 0 100 100" id="star"><path d="m50 6 11.205 36.408L99 41.905 68.13 63.903 80.284 100 50 77.188 19.716 100 31.87 63.903 1 41.905l37.795.503L50 6Z"/></symbol><symbol fill="currentColor" viewBox="0 0 100 100" id="star-empty"><path fill-rule="evenodd" clip-rule="evenodd" d="M61.205 42.408 50 6 38.795 42.408 1 41.905l30.87 21.998L19.716 100 50 77.188 80.284 100 68.13 63.903 99 41.905l-37.795.503Zm19.011 5.652-23.306.31L50 25.92 43.09 48.37l-23.307-.31L38.82 61.626l-7.495 22.26L50 69.817l18.675 14.067-7.495-22.26L80.216 48.06Z"/></symbol><symbol fill="currentColor" viewBox="0 0 100 100" id="star-half-full"><path d="M50 4 38.566 41.182 0 40.67l31.5 22.466L19.098 100 50 76.703V4Z"/><path fill-rule="evenodd" clip-rule="evenodd" d="M61.434 41.182 50 4 38.566 41.182 0 40.67l31.5 22.466L19.098 100 50 76.703 80.902 100 68.5 63.135 100 40.669l-38.566.514Zm22.647 4.7-26.326.35L50 21.012l-7.755 25.22-26.326-.35 21.502 15.334-8.432 25.066L50 70.44l21.011 15.84-8.432-25.065 21.502-15.335Z"/></symbol></svg>